<?xml version="1.0" encoding="UTF-8"?>
<svg version="1.1" viewBox="0 0 1066.7 1066.7" xmlns="http://www.w3.org/2000/svg">
<defs>
<radialGradient id="a" cx="0" cy="0" r="1" gradientTransform="matrix(557.54 0 0 -557.54 399.14 400)" gradientUnits="userSpaceOnUse">
<stop stop-color="#dcdcdc" offset="0"/>
<stop stop-color="#dcdcdc" offset=".43272"/>
<stop stop-color="#bcbec0" offset="1"/>
</radialGradient>
<clipPath id="f">
<path d="m0 800h800v-800h-800z"/>
</clipPath>
<clipPath id="e">
<path d="m256.41 624.59h499.21v-624.59h-499.21z"/>
</clipPath>
<linearGradient id="c" x2="1" gradientTransform="matrix(32.337 0 0 -32.337 381.02 366.5)" gradientUnits="userSpaceOnUse">
<stop stop-color="#e4e0de" offset="0"/>
<stop stop-color="#e4e0de" offset=".02928"/>
<stop stop-color="#adb2b5" offset=".17416"/>
<stop stop-color="#e1e3e5" offset=".33146"/>
<stop stop-color="#f1f1f1" offset=".49438"/>
<stop stop-color="#f1f1f1" offset=".51059"/>
<stop stop-color="#999fa4" offset=".91573"/>
<stop stop-color="#999fa4" offset=".98307"/>
<stop stop-color="#999fa4" offset="1"/>
</linearGradient>
<linearGradient id="b" x2="1" gradientTransform="matrix(0 -425.33 -425.33 0 397.19 693.34)" gradientUnits="userSpaceOnUse">
<stop stop-color="#fff" offset="0"/>
<stop stop-color="#c3c3c3" offset="1"/>
</linearGradient>
<clipPath id="d">
<path d="m0 800h800v-800h-800z"/>
</clipPath>
</defs>
<g transform="matrix(1.3333 0 0 -1.3333 0 1066.7)">
<path d="m0 0h800v800h-800z" fill="url(#a)"/>
<g clip-path="url(#f)">
<g clip-path="url(#e)">
<g transform="translate(754.96 562.49)">
<path d="m0 0c4.169 17.622-12.212 29.369-28.229 29.155-54.05-5e-3 -108.1-0.01-162.15-0.015 2.615 10.986 5.234 21.972 7.855 32.957h-32.337c-2.65-10.986-5.295-21.972-7.935-32.96-54.049-5e-3 -108.1-0.01-162.15-0.015-17.785-0.147-37.2-11.07-42.11-29.047-24.922-100.66-48.046-201.74-70.837-302.89-4.118-17.664 11.622-30.256 28.05-30.222 53.944-0.551 107.89-1.102 161.83-1.653-17.463-75.915-34.823-151.86-52.179-227.8h32.336c17.301 75.843 34.694 151.67 52.198 227.46 53.944-0.55 107.89-1.101 161.83-1.653 18.083-0.03 37.188 11.518 41.879 29.701 24.227 102.27 48.57 204.51 71.938 306.98" fill="#e6e7e8"/>
</g>
</g>
</g>
<path d="m381.02 733v-733h32.337v733z" fill="url(#c)"/>
<path d="m219.27 693.34c-19.19 0-34.747-15.556-34.747-34.747v-355.84c0-19.191 15.557-34.747 34.747-34.747h355.84c19.191 0 34.747 15.556 34.747 34.747v355.84c0 19.191-15.556 34.748-34.747 34.748z" fill="url(#b)"/>
<g clip-path="url(#d)">
<g transform="translate(219.27 663.84)">
<path d="m0 0c-2.891 0-5.243-2.352-5.243-5.243v-355.84c0-1.889 0.962-3.132 1.535-3.706 0.575-0.575 1.819-1.537 3.707-1.537h355.84c2.891 0 5.243 2.353 5.243 5.243v355.84c0 1.889-0.963 3.134-1.536 3.708-0.573 0.572-1.818 1.535-3.706 1.535zm355.84-376.32h-355.84c-5.493 0-9.111 2.798-10.778 4.466-1.666 1.666-4.464 5.283-4.464 10.777v355.84c0 8.405 6.838 15.243 15.243 15.243h355.84c5.491 0 9.109-2.797 10.777-4.464 1.668-1.67 4.465-5.288 4.465-10.779v-355.84c0-8.405-6.838-15.243-15.243-15.243" fill="#231f20"/>
</g>
<g transform="translate(472.9 601.07)">
<path d="m0 0h-29.9v40.025h28.977v-4.772h-23.678v-12.155h22.149v-4.746h-22.149v-13.579h24.601zm-38.813 0h-5.431l-21.015 31.562v-31.562h-5.036v40.025h5.484l20.936-31.614v31.614h5.062zm-57.691 3.85c2.004 0 3.845 0.369 5.524 1.107 1.678 0.738 3.125 1.802 4.337 3.191 1.213 1.388 2.158 3.085 2.834 5.088 0.677 2.004 1.016 4.272 1.016 6.803 0 2.548-0.343 4.825-1.028 6.829-0.686 2.004-1.635 3.692-2.848 5.063s-2.65 2.416-4.311 3.137c-1.662 0.721-3.467 1.081-5.418 1.081-1.988 0-3.824-0.365-5.511-1.094-1.688-0.729-3.143-1.789-4.364-3.177-1.222-1.389-2.175-3.076-2.861-5.062-0.685-1.987-1.028-4.246-1.028-6.777s0.338-4.799 1.015-6.803c0.676-2.003 1.622-3.7 2.834-5.088 1.213-1.389 2.654-2.453 4.325-3.191 1.67-0.738 3.497-1.107 5.484-1.107m0.026 36.861c2.778 0 5.335-0.497 7.673-1.49 2.337-0.993 4.36-2.39 6.065-4.192 1.704-1.802 3.032-3.973 3.981-6.513s1.424-5.366 1.424-8.477c0-3.058-0.471-5.858-1.411-8.398s-2.254-4.724-3.942-6.552c-1.687-1.829-3.705-3.248-6.051-4.258-2.347-1.011-4.927-1.516-7.739-1.516s-5.392 0.501-7.739 1.502c-2.347 1.002-4.368 2.413-6.064 4.232-1.697 1.82-3.015 3.999-3.955 6.539-0.941 2.541-1.411 5.357-1.411 8.451 0 3.129 0.479 5.963 1.437 8.504 0.958 2.54 2.29 4.71 3.995 6.512 1.704 1.802 3.727 3.195 6.065 4.179 2.336 0.985 4.894 1.477 7.672 1.477m-23.282-40.711h-31.667v4.983l24.838 30.27h-22.57v4.772h28.661v-5.009l-24.838-30.243h25.576z"/>
</g>
<g transform="translate(397.19 542.49)">
<path d="m0 0c-54.231 0-98.352-44.121-98.352-98.352 0-54.23 44.121-98.351 98.352-98.351 54.232 0 98.352 44.121 98.352 98.351 0 54.231-44.12 98.352-98.352 98.352m0-227.42c-71.169 0-129.07 57.899-129.07 129.07s57.9 129.07 129.07 129.07c71.168 0 129.07-57.9 129.07-129.07s-57.901-129.07-129.07-129.07" fill="#ed1c24"/>
</g>
<g transform="translate(434.96 409.82)">
<path d="m0 0c2.345 0 4.402 0.576 6.172 1.728 1.769 1.151 3.263 3.059 4.477 5.725 1.216 2.664 2.133 6.182 2.751 10.554 0.619 4.371 0.928 9.775 0.928 16.215 0 6.438-0.309 11.855-0.928 16.247-0.618 4.391-1.535 7.932-2.751 10.618-1.214 2.687-2.708 4.616-4.477 5.789-1.77 1.172-3.827 1.759-6.172 1.759-2.303 0-4.329-0.575-6.077-1.727-1.749-1.151-3.231-3.06-4.445-5.724-1.216-2.666-2.133-6.195-2.751-10.587-0.619-4.392-0.927-9.85-0.927-16.375 0-6.483 0.308-11.909 0.927-16.279 0.618-4.372 1.535-7.879 2.751-10.523 1.214-2.644 2.696-4.541 4.445-5.692 1.748-1.152 3.774-1.728 6.077-1.728m0 83.283c21.406 0 32.11-16.354 32.11-49.061 0-32.581-10.704-48.869-32.11-48.869-21.322 0-31.982 16.288-31.982 48.869 0 32.707 10.66 49.061 31.982 49.061m-47.589-25.97c0-3.412-0.726-6.706-2.176-9.882-1.449-3.178-3.667-5.917-6.652-8.22 4.35-2.217 7.665-5.363 9.946-9.435s3.423-8.667 3.423-13.784c0-4.52-0.832-8.658-2.494-12.41-1.664-3.752-3.956-6.983-6.876-9.69-2.922-2.708-6.355-4.808-10.299-6.301-3.945-1.492-8.198-2.238-12.76-2.238-4.606 0-8.829 0.736-12.666 2.207-3.838 1.471-7.164 3.549-9.979 6.236-2.814 2.686-5.043 5.916-6.684 9.691-1.642 3.774-2.59 7.985-2.846 12.632h17.974c0-2.174 0.309-4.244 0.928-6.204 0.617-1.962 1.535-3.678 2.75-5.149 1.215-1.472 2.697-2.633 4.445-3.487 1.748-0.853 3.775-1.279 6.078-1.279 2.216 0 4.231 0.395 6.044 1.184 1.812 0.788 3.358 1.876 4.637 3.262 1.279 1.385 2.259 3.048 2.943 4.99 0.682 1.939 1.023 4.061 1.023 6.364 0 4.775-1.386 8.412-4.157 10.906-2.773 2.495-6.867 3.742-12.281 3.742h-7.357v14.584h5.565c9.168 0 13.752 4.158 13.752 12.473 0 3.624-0.949 6.386-2.846 8.284-1.898 1.897-4.617 2.846-8.156 2.846-7.335 0-11.513-4.712-12.537-14.136h-17.782c0.512 4.69 1.632 8.827 3.358 12.409 1.728 3.582 3.912 6.589 6.557 9.019 2.643 2.431 5.681 4.264 9.115 5.501 3.432 1.237 7.11 1.855 11.034 1.855 4.392 0 8.368-0.639 11.929-1.919 3.56-1.279 6.61-3.07 9.147-5.373s4.488-5.043 5.853-8.22 2.047-6.663 2.047-10.458"/>
</g>
</g>
</g>
</svg>
